<?xml version="1.0" encoding="UTF-8" standalone="no"?>
<svg
   xmlns:dc="http://purl.org/dc/elements/1.1/"
   xmlns:cc="http://creativecommons.org/ns#"
   xmlns:rdf="http://www.w3.org/1999/02/22-rdf-syntax-ns#"
   xmlns:svg="http://www.w3.org/2000/svg"
   xmlns="http://www.w3.org/2000/svg"
   id="svg6258"
   version="1.1"
   viewBox="0 0 199.44258 215.48381"
   height="215.48381mm"
   width="199.44258mm">
  <defs
     id="defs6252" />
  <metadata
     id="metadata6255">
    <rdf:RDF>
      <cc:Work
         rdf:about="">
        <dc:format>image/svg+xml</dc:format>
        <dc:type
           rdf:resource="http://purl.org/dc/dcmitype/StillImage" />
        <dc:title></dc:title>
      </cc:Work>
    </rdf:RDF>
  </metadata>
  <g
     transform="translate(166.23408,-77.415941)"
     id="layer1">
    <path
       id="path6816"
       d="m -71.48788,291.30696 c -4.88743,-2.06091 -13.95647,-6.51412 -16.63097,-8.16637 -5.15467,-3.18447 -14.27626,-9.38245 -16.78852,-11.40755 -8.30177,-6.69193 -19.08378,-17.82695 -26.22416,-27.08276 -4.85075,-6.28783 -9.81031,-13.47735 -12.5367,-18.17353 -0.68829,-1.18557 -1.81098,-3.10809 -2.49485,-4.27226 -1.61816,-2.75459 -2.56348,-4.59094 -4.35846,-8.46666 -0.80875,-1.74625 -2.10846,-4.52438 -2.88824,-6.17361 -2.29129,-4.84606 -2.5479,-5.46691 -4.88469,-11.81806 -1.73471,-4.71478 -4.00809,-13.44676 -5.46483,-20.99028 -1.60586,-8.31572 -1.92495,-11.28949 -2.44157,-22.75416 -0.1919,-4.25851 0.4865,-16.97594 1.04441,-19.57876 0.27038,-1.26141 0.90883,-4.67471 1.41877,-7.58513 1.35522,-7.73465 3.16171,-12.82901 7.36155,-20.75978 3.23287,-6.104802 7.79081,-12.002306 12.59844,-16.301098 5.28582,-4.726363 13.6283,-8.600291 21.64141,-10.04944 2.71764,-0.491477 11.32673,-0.255117 14.22364,0.390505 6.83877,1.524126 14.81782,5.239819 21.31922,9.927955 1.42007,1.024002 2.66131,1.942979 2.75832,2.042171 0.097,0.09919 1.36702,1.116172 2.82223,2.259955 1.4552,1.143784 5.2966,4.749149 8.53642,8.011922 l 5.89058,5.93232 1.97094,-2.19254 c 1.08401,-1.20589 4.44008,-4.526146 7.45792,-7.378349 4.16494,-3.936329 6.69074,-5.982275 10.48293,-8.491361 8.03091,-5.313615 11.87593,-7.072212 20.18393,-9.231525 14.617223,-3.799127 29.1095275,-0.675749 39.350226,8.48075 6.900227,6.169687 11.93269,14.462705 15.619652,25.739695 1.997668,6.1101 3.039145,10.62541 4.103899,17.79243 0.578958,3.89706 0.850103,22.0188 0.398519,26.63472 -2.099056,21.45576 -8.576532,42.87595 -18.272552,60.42502 -1.424022,2.57737 -2.589131,4.75682 -2.589131,4.84322 0,0.29726 -5.4274935,9.17048 -6.8579725,11.21186 -3.77844,5.39205 -5.52539598,7.74601 -8.040585,10.83442 -1.500247,1.84215 -3.762629,4.61937 -5.027514,6.17159 -3.6075045,4.42701 -15.0671815,15.35398 -21.6054715,20.60115 -3.58691,2.8786 -4.26735,3.37128 -10.67957,7.73279 -6.28043,4.27188 -19.92506,11.70634 -21.4849,11.70634 -0.1745,0 -1.16646,0.39532 -2.20438,0.8785 -1.03791,0.48317 -2.36336,0.86485 -2.94544,0.84818 -0.58209,-0.0167 -2.72521,-0.7332 -4.7625,-1.59227 z m 10.19807,-1.7237 c 4.06699,-1.62496 9.63255,-4.4402 13.70138,-6.9306 1.22019,-0.74684 2.27509,-1.35789 2.34423,-1.35789 0.2789,0 7.06945,-4.62568 8.44386,-5.75192 0.81075,-0.66434 1.97546,-1.5128 2.58825,-1.88546 1.22291,-0.74369 7.54538,-5.86737 7.40876,-6.00399 -0.0468,-0.0468 -1.26963,0.22442 -2.71744,0.60267 -3.9655,1.03603 -8.77893,0.72275 -11.71163,-0.76223 -0.33692,-0.1706 -0.81317,-0.31068 -1.05833,-0.3113 -1.96842,-0.005 -12.42696,-9.2874 -14.84676,-13.1772 -0.89516,-1.43894 -4.55198,-5.98812 -5.08848,-6.33018 -0.24336,-0.15516 -0.44247,-0.45663 -0.44247,-0.66992 0,-0.21329 -0.5753,-0.94653 -1.27844,-1.62942 -1.34817,-1.30932 -8.79774,-12.30165 -9.3642,-13.8175 -0.18235,-0.48793 -1.35912,-2.91474 -2.61506,-5.39289 -2.60877,-5.14749 -4.78552,-11.04071 -5.9388,-16.07839 -0.54803,-2.3939 -1.33282,-3.58116 -2.36716,-3.58116 -0.35224,0 -1.47857,0.37689 -2.50297,0.83754 -2.3734,1.06725 -4.58985,1.76274 -8.55151,2.68332 -5.38841,1.25213 -12.13712,0.72396 -23.8263,-1.86469 -5.00483,-1.10835 -10.64739,-1.55721 -15.52223,-1.23478 -3.4076,0.22539 -3.93621,0.36262 -6.60249,1.71401 -1.59408,0.80795 -3.41363,1.99602 -4.04345,2.64016 -0.62981,0.64414 -1.66156,1.26806 -2.29277,1.38647 -0.6312,0.11842 -1.23839,0.36212 -1.34929,0.54157 -0.48402,0.78316 4.62222,10.14609 9.90781,18.16724 8.84685,13.42552 21.14876,27.63841 31.77083,36.70611 4.5173,3.85627 7.21423,5.9338 9.12186,7.02685 0.97014,0.55589 2.25096,1.37801 2.84626,1.82694 3.03325,2.28745 20.36289,11.76648 21.51157,11.76648 0.0713,0 1.44622,0.64122 3.05536,1.42493 3.51907,1.71393 3.80837,1.6972 9.41961,-0.54477 z m 60.71026252,-49.57609 c 1.387217,-1.97808 3.05132998,-4.31173 5.06290798,-7.09992 0.74731,-1.03582 1.757595,-2.67706 2.245078,-3.6472 0.487486,-0.97014 1.146051,-2.05828 1.463481,-2.41808 0.824875,-0.935 2.9204675,-4.48419 4.7859815,-8.10577 0.88266,-1.71353 1.903119,-3.53915 2.26769,-4.05694 0.364568,-0.51779 0.783869,-1.33831 0.931778,-1.82338 0.147909,-0.48507 0.80578,-1.9536 1.461932,-3.2634 1.858173,-3.70925 5.492976,-13.2273 7.645312,-20.01993 5.217389,-16.46572 7.318788,-32.38005 6.521528,-49.38889 -0.496094,-10.58367 -2.860499,-22.48369 -5.935084,-29.87117 -0.77186,-1.85459 -1.403382,-3.55234 -1.403382,-3.77278 0,-0.92599 -4.288381,-8.814787 -6.093252,-11.208992 -1.076208,-1.427616 -3.20143,-3.797601 -4.722717,-5.266635 C 7.8536155,84.465145 3.4735025,81.990548 -4.8128805,79.632296 -13.576096,77.138341 -26.76475,78.882883 -36.38649,83.808727 c -4.21181,2.156231 -9.42764,5.382467 -12.55982,7.768842 -4.94401,3.76679 -13.15874,11.310571 -15.8388,14.545161 -0.87312,1.05379 -1.77226,1.92546 -1.99809,1.93706 -0.22583,0.0116 -1.22058,-0.99682 -2.21056,-2.24094 -2.46615,-3.09926 -10.01558,-10.29818 -14.42606,-13.75628 -2.0029,-1.570412 -5.33665,-3.922102 -7.40833,-5.225979 -3.27512,-2.061307 -4.95874,-2.89794 -10.89313,-5.413085 -4.27143,-1.810339 -12.6816,-3.187116 -17.32798,-2.836656 -4.69905,0.354432 -11.45208,2.327887 -15.48318,4.524693 -2.71328,1.47864 -7.48522,4.750408 -9.0985,6.238177 -9.14422,8.432811 -16.67091,22.98641 -18.90074,36.54644 -0.38287,2.32834 -1.03006,5.90021 -1.43819,7.9375 -0.61393,3.06456 -0.7689,5.39456 -0.89746,13.49375 l -0.15539,9.78958 h 0.87024 c 0.51972,0 1.8752,0.78633 3.36528,1.95223 2.88161,2.25471 3.84089,2.64339 9.07878,3.67852 2.11428,0.41783 5.43165,1.21853 7.37193,1.77933 4.45088,1.28646 10.40448,2.67916 12.7,2.97086 3.62919,0.46119 20.36086,0.93652 38.62916,1.09743 10.38049,0.0914 19.64348,0.23935 20.58442,0.3287 1.70965,0.16235 1.71065,0.1618 1.47795,-0.79522 -0.12808,-0.52673 -1.49325,-2.23099 -3.03373,-3.78727 -2.86988,-2.89932 -3.32427,-3.6968 -2.10637,-3.6968 0.47063,0 0.62939,-0.1696 0.49256,-0.52619 -0.11175,-0.29121 0.0324,-0.61609 0.32267,-0.72749 1.69393,-0.65003 7.66268,3.84302 10.19102,7.67142 l 0.86016,1.30245 1.56886,-0.89674 c 2.3071,-1.31872 9.15409,-3.90035 11.48955,-4.33208 2.29235,-0.42377 9.99126,-0.5001 10.56132,-0.10472 0.20553,0.14255 1.38037,2.56106 2.61076,5.37446 1.23039,2.81341 2.7688,6.26689 3.41868,7.67441 0.64988,1.40752 1.1816,2.76483 1.1816,3.01625 0,0.25142 0.13801,0.60793 0.30669,0.79226 0.75681,0.82701 6.04331,15.3632 6.04331,16.61717 0,0.37185 0.39836,1.86113 0.88525,3.30952 1.14543,3.40743 2.35349,9.23721 1.98957,9.60113 -0.15565,0.15565 -1.04357,-0.1421 -1.97316,-0.66165 -1.61708,-0.90381 -1.78545,-0.92709 -3.89422,-0.53853 -1.21224,0.22336 -2.74139,0.41262 -3.39812,0.42058 l -1.19404,0.0145 1.52583,1.37992 c 0.83921,0.75896 2.90296,2.42765 4.58611,3.7082 l 3.06028,2.32828 1.14128,-1.34142 c 0.66512,-0.78176 1.14347,-1.73783 1.14653,-2.29155 0.003,-0.57456 0.31184,-1.16488 0.78085,-1.49339 0.65309,-0.45744 1.62387,-2.92357 1.67664,-4.25925 0.008,-0.19403 -0.44024,-0.83728 -0.99535,-1.42945 -1.71483,-1.8293 -3.55432,-6.9353 -3.56835,-9.9049 -0.006,-1.21518 1.32853,-3.67338 4.40669,-8.11865 2.53362,-3.65888 3.01801,-4.6691 4.712279,-9.82756 0.764727,-2.32833 1.909156,-5.6339 2.543172,-7.3457 l 1.152758,-3.11237 -0.790307,-2.1793 c -0.434672,-1.19861 -0.960459,-2.78724 -1.168425,-3.53027 -0.422381,-1.50914 -0.294097,-1.50581 -3.662127,-0.0952 -1.18215,0.49511 -3.28416,1.0948 -4.67112,1.33264 -2.36244,0.40512 -2.58325,0.38671 -3.49508,-0.29123 -0.68712,-0.51088 -1.00506,-1.09447 -1.08122,-1.98469 -0.11313,-1.32233 -1.09842,-2.32347 -3.50808,-3.56455 -0.69633,-0.35864 -1.14653,-0.85913 -1.14653,-1.2746 0,-0.78178 -0.98019,-1.41446 -2.19137,-1.41446 -0.45465,0 -1.16209,-0.23496 -1.57209,-0.52214 -0.68522,-0.47995 -0.73067,-0.75899 -0.56255,-3.45375 0.2192,-3.51361 -0.25183,-5.96386 -1.71967,-8.94547 -0.97887,-1.98836 -1.08705,-2.53803 -1.09789,-5.57828 -0.007,-1.98282 -0.15597,-3.37258 -0.36134,-3.37258 -0.19212,0 -0.92367,0.35558 -1.62567,0.79018 -1.89296,1.17192 -7.41726,1.30631 -12.54203,0.30512 -4.48008,-0.87523 -7.4991,-0.94487 -9.24986,-0.21336 -0.69656,0.29104 -1.40584,0.52917 -1.57617,0.52917 -0.76044,0 -0.17942,-1.19081 1.28582,-2.63531 1.53612,-1.51437 4.16019,-2.63739 7.22393,-3.09163 0.70298,-0.10423 0.16866,-0.47519 -2.63317,-1.82807 -1.93331,-0.93352 -4.22199,-1.79843 -5.08594,-1.92201 -0.86395,-0.12358 -1.62679,-0.39262 -1.6952,-0.59787 -0.0684,-0.20525 0.96004,-0.95002 2.28547,-1.65506 4.83942,-2.57423 12.50318,-2.2405 17.18301,0.74826 0.77611,0.49566 2.71839,2.0708 4.31619,3.50031 3.23415,2.89352 2.82791,2.91171 3.97914,-0.17808 0.43452,-1.16619 3.53532,-4.33498 4.24199,-4.33498 0.21819,0 1.1057,-0.58096 1.97223,-1.29102 5.18826,-4.25138 14.201843,-5.30566 19.782385,-2.31384 0.621955,0.33343 1.9713295,1.05952 2.9986105,1.61352 1.027282,0.554 2.273346,1.38744 2.769034,1.85208 0.495685,0.46465 1.082337,0.84482 1.303666,0.84482 0.464361,0 0.704,0.39762 3.06736,5.08956 1.33168402,2.64377 1.77947802,3.94692 1.89231802,5.50694 0.133304,1.84291 -0.839918,11.80047 -1.212525,12.40602 -0.35349102,0.57449 0.32772,2.0447 0.947391,2.0447 0.708071,0 2.44915298,2.04473 2.44915298,2.87629 0,0.67099 -0.935627,1.95012 -1.219087,1.66666 -0.120142,-0.12015 -0.02896,-0.63433 0.202653,-1.14264 0.377867,-0.82933 0.319825,-1.01806 -0.565415,-1.83847 -0.99616998,-0.92322 -1.57361798,-0.7413 -1.58774998,0.50021 -0.007,0.61297 1.85688798,4.01526 3.31535598,6.05184 2.650914,3.70168 3.734799,5.29731 3.734799,5.49817 0,0.11756 0.297804,0.63513 0.661786,1.15015 1.369794,1.93821 5.1068365,9.3765 5.4121085,10.77239 0.898053,4.10643 1.048304,6.47477 0.864317,13.62373 -0.107361,4.1716 -0.354863,8.45785 -0.550006,9.525 -0.195139,1.06715 -0.516131,4.09696 -0.713313,6.73289 -0.258378,3.45402 -0.564846,5.27399 -1.097255,6.51605 -0.406312,0.94788 -0.964392,2.90277 -1.2401835,4.3442 -0.275795,1.44143 -0.719653,2.87484 -0.98636,3.18535 -0.495219,0.57656 -2.351094,5.90772 -2.351094,6.75372 0,0.25699 -0.303859,1.11269 -0.675238,1.90155 -0.371384,0.78886 -1.02108,2.22805 -1.443772,3.19818 -0.422691,0.97014 -1.150708,2.5875 -1.617817,3.59413 -0.467106,1.00663 -0.849285,1.94353 -0.849285,2.082 0,0.24457 -2.76442298,5.16191 -3.799928,6.75929 -1.027405,1.58488 0.128669,0.73097 1.33048402,-0.98274 z M -13.985103,239.66699 c 0,-0.19402 -0.321235,-0.67401 -0.713852,-1.06663 -0.669583,-0.66958 -0.675055,-0.72975 -0.08819,-0.97014 1.967018,-0.80574 3.685011,-2.48992 4.759681,-4.666 4.242759,-9.74274 5.8668428,-9.68904 9.23163352,-17.30304 1.497055,-4.57307 1.96463298,-6.19443 3.72662398,-12.92239 1.62154,-6.19165 3.619469,-11.39273 4.37901,-11.3996 0.303597,-0.003 0.172134,1.14469 -0.323025,2.81947 -0.258014,0.87269 -0.252327,0.87149 0.541684,-0.11349 1.207537,-1.49795 2.5452985,-6.01725 2.7391215,-9.25343 0.195566,-3.26527 -0.6380335,-6.96128 -2.2000815,-9.75473 -1.619652,-2.89648 -5.959831,-6.63113 -7.70628198,-6.63113 -1.110146,0 -2.85798702,1.0061 -4.88240902,2.81045 -1.471687,1.31169 -2.32531,2.50852 -3.575167,5.01258 -2.2722195,4.55234 -2.9921115,7.70278 -3.6133815,15.81308 -0.554789,7.24243 -0.969497,10.31911 -1.784326,13.23781 -0.465539,1.66756 -1.190748,4.94802 -3.117624,14.10247 -0.449238,2.13431 -0.701957,4.11868 -0.561601,4.40972 0.14036,0.29105 0.146315,0.92605 0.01323,1.41112 l -0.241959,0.88194 -0.672793,-1.19864 c -1.01593,-1.80997 -2.41667,-3.33554 -4.09813,-4.46333 -0.83246,-0.55836 -2.33053,-1.73533 -3.32905,-2.6155 -0.99852,-0.88017 -2.03351,-1.75906 -2.29999,-1.95309 -0.26647,-0.19402 -1.13587,-0.9084 -1.932,-1.5875 -0.79612,-0.67909 -2.76542,-2.34597 -4.37621,-3.70416 -7.96211,-6.71352 -10.50351,-11.06855 -8.57973,-14.70254 0.51363,-0.97024 0.62398,-2.13069 0.63983,-6.72812 0.0142,-4.10386 -0.0918,-5.55581 -0.40524,-5.55625 -0.47169,-7e-4 -1.1581,2.12425 -1.16114,3.59456 -10e-4,0.52212 -0.16072,1.04743 -0.35475,1.16735 -0.55016,0.34002 -0.42601,-3.21118 0.15765,-4.50925 0.87841,-1.9536 1.5384,-2.58639 2.23309,-2.14104 0.37807,0.24237 0.58228,0.77289 0.54018,1.40332 -0.0372,0.5575 -0.0811,3.31551 -0.0975,6.12891 -0.0252,4.33558 -0.14914,5.45213 -0.81291,7.32519 l -0.78313,2.20991 1.23337,2.29629 c 0.67836,1.26296 2.24036,3.32045 3.47112,4.57221 l 2.23773,2.27594 2.17199,-0.21826 c 1.19459,-0.12004 2.88636,-0.32141 3.75949,-0.44749 0.94376,-0.13628 2.20676,-0.0476 3.11465,0.2186 l 1.52715,0.44785 -0.2204,-1.6672 c -0.284,-2.14843 -0.78947,-4.17272 -1.42934,-5.72415 -0.28008,-0.6791 -0.82421,-2.7813 -1.20918,-4.67157 -0.38496,-1.89027 -1.11292,-4.50964 -1.61769,-5.82083 -0.50477,-1.31119 -1.12865,-2.93961 -1.3864,-3.61871 -0.25775,-0.6791 -0.88217,-2.20707 -1.3876,-3.3955 -0.50543,-1.18843 -0.91896,-2.27238 -0.91896,-2.40879 0,-0.1364 -1.41193,-3.37092 -3.13761,-7.18783 -1.72569,-3.8169 -3.34161,-7.52554 -3.59094,-8.24143 -0.44483,-1.27721 -0.49611,-1.30618 -2.73624,-1.54608 -6.29699,-0.67435 -14.16283,1.47437 -20.6959,5.65353 l -2.03881,1.30421 1.62524,1.47275 c 1.22157,1.10695 2.20044,2.61184 3.94104,6.05886 1.61507,3.19842 2.76173,4.99861 3.78954,5.94935 0.81056,0.74978 1.53224,1.18776 1.60373,0.97328 0.0715,-0.21446 -0.10883,-0.62875 -0.40072,-0.92064 -0.29188,-0.29188 -1.04365,-1.44424 -1.67059,-2.56079 -0.62695,-1.11655 -1.38246,-2.31284 -1.67893,-2.65843 -0.47286,-0.5512 -0.47573,-0.69165 -0.0234,-1.14398 0.45233,-0.45233 0.67525,-0.40718 1.81572,0.36779 0.71504,0.48588 2.2427,2.11192 3.39479,3.61342 3.4269,4.46622 6.88507,7.4925 8.56176,7.4925 0.55591,0 1.01075,0.15875 1.01075,0.35278 0,1.59058 -5.84706,-1.73521 -8.26781,-4.7027 -4.1207,-5.05138 -4.86665,-5.91654 -4.99265,-5.79054 -0.23007,0.23007 1.12195,2.78341 2.47349,4.67128 1.63286,2.28082 1.64127,2.79664 0.0407,2.49637 l -1.22126,-0.22911 0.84228,1.86554 c 0.46325,1.02605 1.48161,3.15346 2.26301,4.72758 3.64073,7.33413 6.26135,13.06445 8.04504,17.59149 1.46282,3.71265 2.27694,5.2819 3.29436,6.35 0.74327,0.78029 1.9584,2.16317 2.70031,3.07309 6.64822,8.15376 9.69981,11.52815 12.80374,14.15815 2.84073,2.40699 3.74244,3.06902 4.94934,3.63381 0.29104,0.13619 0.98717,0.56538 1.54695,0.95373 1.887302,1.30934 5.155823,2.13078 5.155823,1.29575 z M -70.42955,229.43324 c 2.11288,-0.60248 2.14746,-0.66931 1.55633,-3.00747 -0.29265,-1.15752 -0.58549,-2.42208 -0.65076,-2.81013 -0.0653,-0.38806 -0.29263,-1.34056 -0.50524,-2.11667 -0.21261,-0.77611 -0.71512,-3.87174 -1.11671,-6.87917 -1.38384,-10.36349 -2.11713,-15.15681 -2.6565,-17.3648 -1.11031,-4.54517 -2.09518,-7.11359 -3.15131,-8.21823 -1.75387,-1.83443 -5.76096,-2.33733 -11.1147,-1.39493 -2.22593,0.39183 -8.86419,1.91675 -9.17195,2.10696 -0.48141,0.29753 -12.34067,2.04347 -16.9336,2.493 -0.87313,0.0854 -2.38125,0.31756 -3.35139,0.5158 -0.97014,0.19823 -3.19264,0.51418 -4.93889,0.70209 -1.74625,0.18792 -4.445,0.50314 -5.99722,0.70049 -1.55223,0.19736 -4.95498,0.51542 -7.56169,0.70681 -5.84617,0.42925 -8.41771,0.0591 -11.79727,-1.6979 -2.67303,-1.38972 -6.39927,-4.84131 -7.3279,-6.78779 -0.31972,-0.67014 -1.15315,-2.36117 -1.85208,-3.75784 -0.69893,-1.39666 -1.27079,-3.01448 -1.27079,-3.59515 0,-1.40957 -0.66447,-1.75428 -1.46824,-0.76167 -0.80155,0.98988 -0.83534,1.78094 -0.0761,1.78094 0.4143,0 0.47315,0.12178 0.21311,0.44097 -0.51241,0.62897 -0.44983,3.95455 0.1215,6.45745 0.89078,3.9023 3.19712,10.18488 4.46287,12.15706 1.34797,2.10029 2.39127,4.7924 2.39127,6.1704 0,1.19684 1.48324,4.38967 2.58013,5.55398 1.23904,1.31521 2.0588,1.22365 4.20034,-0.46914 2.21418,-1.75021 4.79562,-3.09408 7.15425,-3.72443 4.75858,-1.27175 14.91347,-0.78253 22.40139,1.07922 11.18701,2.78145 19.56256,2.48864 28.00197,-0.97898 4.27063,-1.75472 5.33957,-1.71409 6.51817,0.24778 0.36727,0.61134 0.77491,1.8259 0.90588,2.69902 0.7426,4.95074 7.21601,20.11075 8.58553,20.10637 0.33816,-0.001 1.17046,-0.1604 1.84956,-0.35404 z m -78.25918,-26.66621 c -0.74264,-0.52016 -1.05636,-1.55278 -0.47176,-1.55278 0.16021,0 0.6484,0.38013 1.08487,0.84472 0.92802,0.98784 0.49701,1.48561 -0.61311,0.70806 z m 87.25826,20.17354 c 6.50887,-1.39368 17.47611,-6.3996 17.45058,-7.96519 -0.0114,-0.69667 -1.3124,-4.57741 -1.70315,-5.08014 -0.16703,-0.21489 -0.75077,-1.58134 -1.2972,-3.03655 -2.20289,-5.86652 -14.90412,-31.2519 -16.86778,-33.71289 -0.6178,-0.77426 -1.46632,-1.32667 -2.44131,-1.58935 -0.82191,-0.22144 -2.36751,-0.6961 -3.43466,-1.0548 -1.76603,-0.59361 -3.74611,-0.67005 -22.04862,-0.8512 -11.05958,-0.10947 -21.4577,-0.27679 -23.10694,-0.37182 -1.64924,-0.095 -5.45924,-0.25723 -8.46667,-0.36044 -9.11792,-0.31292 -11.33975,-0.68366 -21.87222,-3.64962 -1.45521,-0.40979 -4.23333,-1.07399 -6.17361,-1.47601 -4.34454,-0.90017 -6.45771,-1.50058 -7.89228,-2.24243 -1.06084,-0.54858 -1.10355,-0.54301 -1.10355,0.14395 0,0.89645 -0.62532,0.89966 -1.76389,0.009 -0.48507,-0.37942 -1.15976,-0.69339 -1.49931,-0.69771 -1.00049,-0.0127 -0.70526,1.01928 0.35278,1.23316 1.86825,0.37766 2.67757,0.70288 2.82051,1.13339 0.10324,0.31096 -0.13879,0.28656 -0.85312,-0.086 -0.95751,-0.49942 -2.23197,-0.70438 -2.23197,-0.35896 0,0.64796 1.77721,3.33709 2.9681,4.49108 1.61156,1.56162 6.80808,5.50945 9.654,7.33421 1.45955,0.93584 2.21283,1.78759 3.48256,3.93785 0.8911,1.50905 1.99213,2.98743 2.44673,3.2853 1.51826,0.99481 3.61701,0.68318 6.98985,-1.03785 1.70751,-0.87127 3.83286,-1.67141 4.74025,-1.78456 2.27197,-0.28332 6.79656,0.74374 17.16712,3.89684 8.73645,2.65627 18.06711,5.18665 19.22639,5.21401 0.67909,0.016 2.41912,-0.24344 3.86673,-0.57659 5.4241,-1.24832 9.19387,-1.64476 11.83188,-1.24428 5.07457,0.77038 5.53956,1.35256 8.32587,10.42401 0.37204,1.21126 1.3821,7.62304 2.26868,14.40139 0.64373,4.92167 1.81883,11.47264 2.1102,11.76401 0.24487,0.24487 3.31573,0.64092 4.05219,0.52261 0.29104,-0.0468 1.64188,-0.32326 3.00186,-0.61446 z m -70.02964,-29.48085 c 10.09492,-1.12223 12.49741,-1.41916 13.01762,-1.60887 0.2717,-0.0991 2.09732,-0.34093 4.05694,-0.53742 3.75656,-0.37668 14.37094,-2.02431 14.6153,-2.26867 0.0789,-0.0789 -0.3119,-0.2472 -0.86837,-0.37408 -1.40774,-0.32097 -6.23607,-1.78632 -8.77287,-2.66247 -1.16417,-0.40207 -2.91042,-0.94649 -3.88056,-1.20981 -6.81493,-1.84975 -10.70762,-2.95594 -11.47428,-3.26067 -1.56676,-0.62276 -7.6708,-1.52337 -8.69933,-1.28353 -0.54618,0.12736 -2.45088,0.92672 -4.23266,1.77636 -5.54396,2.64363 -7.72187,2.08847 -10.68659,-2.72404 -1.28103,-2.07943 -2.07323,-2.92036 -3.89511,-4.13468 -3.72742,-2.48442 -7.80437,-5.72139 -9.78356,-7.76785 -1.72283,-1.78138 -1.85208,-1.85205 -1.85208,-1.01263 0,0.49631 0.15826,1.66857 0.35169,2.605 0.19343,0.93644 0.67079,3.35737 1.06081,5.37986 0.39002,2.02248 0.78904,3.75716 0.88671,3.85483 0.0977,0.0977 0.62119,-0.2474 1.16336,-0.76683 1.64447,-1.5755 2.62074,-1.16102 2.99445,1.27131 0.11271,0.73359 0.47292,1.84484 0.80048,2.46945 0.32755,0.62461 0.90801,1.75569 1.28991,2.51351 2.20342,4.37234 5.24176,7.45119 8.91509,9.03393 3.64565,1.57081 6.15891,1.68937 14.99305,0.7073 z m 118.025496,-15.52881 c 2.690333,-5.44332 4.3483525,-7.75336 6.7404365,-9.39114 3.193432,-2.18643 4.06897,-2.38511 7.710015,-1.74958 1.819031,0.31751 3.681913,0.89541 4.576667,1.41977 1.910147,1.11942 3.954889,3.56038 5.6311735,6.72234 0.720033,1.3582 1.225148,2.20153 1.122475,1.87408 -0.102672,-0.32745 -0.364719,-1.59745 -0.58233,-2.82222 -0.287521,-1.61826 -1.080583,-3.48025 -2.9017985,-6.81297 -1.378377,-2.52236 -2.805928,-4.98298 -3.17233,-5.46805 -0.366405,-0.48507 -1.287187,-1.83445 -2.046189,-2.99862 -0.759001,-1.16416 -2.028631,-3.05333 -2.82139598,-4.19814 -0.79277,-1.14481 -1.753182,-2.69262 -2.13425302,-3.43958 -0.381071,-0.74696 -0.745314,-1.35811 -0.809431,-1.35811 -0.630541,0 -2.32471,0.86627 -2.478631,1.26738 -0.318353,0.82961 1.056637,1.90762 2.433158,1.90762 1.27774002,0 1.65386802,0.46923 0.676702,0.8442 -1.024791,0.39325 -1.914289,0.22118 -3.265297,-0.63168 -2.40761,-1.51985 -3.278145,-3.8795 -1.810498,-4.90748 0.711846,-0.49859 0.711073,-0.50498 -0.127956,-1.05473 -0.801412,-0.52511 -0.937627,-0.49014 -2.691349,0.69089 -2.9507565,1.98715 -4.5396245,2.57304 -7.0010785,2.58161 -3.065446,0.0107 -5.096586,-0.57199 -6.637586,-1.90408 -0.95954,-0.82946 -1.33377,-1.4524 -1.40757,-2.34304 -0.22658,-2.7344 -0.94452,-5.83957 -1.49289,-6.45697 -0.32128,-0.36172 -1.60578,-1.14119 -2.85444,-1.73214 -2.06803,-0.97874 -2.58662,-1.07371 -5.82083,-1.06597 -3.5293,0.008 -3.55002,0.0136 -3.46254,0.8502 0.0484,0.46293 0.34609,1.42763 0.66155,2.14379 0.54217,1.23085 0.61589,1.27435 1.34743,0.79502 1.06121,-0.69532 3.86225,-1.17679 5.53838,-0.95197 1.67326,0.22443 1.61998,0.92487 -0.0755,0.99226 -0.66544,0.0265 -2.21072,0.34817 -3.43396,0.71492 -1.93326,0.57965 -2.19666,0.75966 -2.01448,1.3767 0.11527,0.39042 0.30009,1.02736 0.4107,1.41542 0.11062,0.38805 0.27296,2.29305 0.36077,4.23333 0.18685,4.1287 0.31351,4.7058 0.90337,4.11594 0.47948,-0.47948 3.44566,-0.56276 3.44566,-0.0967 0,0.17327 -0.24679,0.40974 -0.54842,0.52548 -0.48447,0.18591 -0.47418,0.31082 0.0882,1.07127 0.51012,0.68978 1.0747,0.90896 2.84147,1.10311 1.21268,0.13327 2.20486,0.30877 2.20486,0.39 0,0.0812 -0.2417,0.51659 -0.53711,0.96745 -0.48097,0.73405 -0.48097,0.86634 0,1.2655 0.29541,0.24518 0.53711,0.86726 0.53711,1.38241 0,1.44005 0.92409,2.50475 2.17395,2.50475 1.68034,0 4.86497,-0.93882 7.054329,-2.07958 1.097982,-0.5721 2.367982,-1.0923 2.822223,-1.156 0.706726,-0.0991 0.811939,0.0197 0.729184,0.82345 -0.05319,0.5166 0.391068,2.40743 0.987235,4.20185 l 1.083945,3.26259 -0.883494,2.67731 c -0.485919,1.47253 -1.308315,3.86795 -1.827544,5.32315 -1.361344,3.81536 -2.229866,6.97015 -1.986022,7.21399 0.376463,0.37646 1.055892,-0.62364 2.743909,-4.03899 z M -31.48402,146.3896 c -0.10487,-0.27328 -0.65551,-0.68941 -1.22366,-0.92474 -0.8038,-0.33295 -1.03298,-0.65318 -1.03298,-1.44341 0,-0.88056 0.13321,-1.01554 1.00227,-1.01554 0.55124,0 1.74206,-0.22264 2.64627,-0.49477 0.94872,-0.28552 1.72805,-0.35879 1.84273,-0.17323 0.31847,0.51529 -0.21325,1.80034 -1.33468,3.22564 -1.11142,1.41258 -1.59432,1.62253 -1.89995,0.82605 z m -34.58841,23.053 0.92449,-0.72721 -0.84402,-1.65404 c -0.46421,-0.90973 -1.29539,-2.06789 -1.84705,-2.57369 -1.49433,-1.3701 -4.97494,-3.84286 -5.40913,-3.84286 -0.2086,0 0.25545,0.84068 1.03121,1.86817 1.30619,1.73004 1.89362,2.84912 3.32475,6.33392 0.62856,1.53052 1.41902,1.69752 2.81975,0.59571 z m -97.49045,-9.50335 c 0,-0.19403 -0.15875,-0.35278 -0.35278,-0.35278 -0.19403,0 -0.35278,0.15875 -0.35278,0.35278 0,0.19402 0.15875,0.35277 0.35278,0.35277 0.19403,0 0.35278,-0.15875 0.35278,-0.35277 z m 0.90271,-0.89317 c -0.37663,-0.28487 -0.93226,-0.51232 -1.23472,-0.50544 -0.3525,0.008 -0.2333,0.19351 0.33201,0.51666 1.1543,0.65986 1.77968,0.65209 0.90271,-0.0112 z M -2.6058715,148.25214 c -0.229411,-0.87727 -0.468887,-0.81209 -1.412568,0.38448 l -0.793062,1.00558 1.189133,-0.36496 c 0.912198,-0.27996 1.148926,-0.51869 1.016497,-1.0251 z m -10.2437665,-1.37253 c -1.024735,-0.14937 -2.453485,-0.35821 -3.175,-0.4641 l -1.311853,-0.19252 1.411111,0.481 c 0.776111,0.26455 2.204861,0.4734 3.175,0.4641 l 1.763889,-0.0169 z m 11.0024225,-2.46262 c 0.09662,-0.67909 0.277329,-2.62921 0.401567,-4.33358 0.262996,-3.60789 -0.148396,-4.62436 -2.032364,-5.02158 -0.637162,-0.13434 -1.634729,-0.46204 -2.216813,-0.72822 -1.289727,-0.58978 -7.8048615,-2.12072 -10.2305545,-2.40399 -6.2771,-0.73304 -19.95418,-1.69464 -20.86213,-1.46676 -1.43793,0.36089 -1.26597,0.57089 2.32692,2.84164 0.307,0.19402 1.03113,0.6918 1.60919,1.10617 1.37876,0.98832 8.9844,4.76986 11.45796,5.69692 1.06716,0.39995 2.99015,1.13267 4.273328,1.62828 1.283177,0.4956 3.188177,1.12932 4.233334,1.40826 1.045157,0.27895 3.1702865,0.98059 4.7225085,1.55921 1.840029,0.68591 3.39979,1.03401 4.481798,1.00021 1.615486,-0.0505 1.664247,-0.0846 1.835256,-1.28656 z m -15.4685075,-0.54038 c -0.376637,-0.28487 -0.852887,-0.51232 -1.058337,-0.50545 -0.20545,0.007 0.0233,0.23938 0.5084,0.51667 1.142737,0.65325 1.420938,0.64757 0.549937,-0.0112 z M -36.2101,135.70119 c -0.29104,-0.10639 -0.91195,-0.53043 -1.37981,-0.94229 -0.46785,-0.41187 -0.72094,-0.51072 -0.56243,-0.21968 0.59434,1.09125 0.99129,1.41033 1.72085,1.38326 0.51213,-0.019 0.58245,-0.0893 0.22139,-0.22129 z m 2.79282,-0.2483 c -0.49716,-0.4893 -3.85116,-2.65248 -3.85116,-2.48383 0,0.58719 0.83506,1.61757 1.68457,2.07858 0.85193,0.46233 2.54667,0.77932 2.16659,0.40525 z m 32.48495452,-2.13178 c 0,-0.40655 -0.35863002,-0.47006 -1.73429102,-0.30714 -1.539134,0.18229 -1.836864,0.10283 -2.645833,-0.70614 -1.607217,-1.60722 -0.858238,-3.12636 1.785948,-3.62241 0.779516,-0.14624 1.074949,-0.36746 0.944552,-0.70728 -0.254236,-0.66252 -1.773643,-0.59743 -3.289265,0.14091 -1.019669,0.49674 -1.253028,0.81893 -1.339832,1.84985 -0.07087,0.84169 0.115905,1.50319 0.573349,2.03062 1.270472,1.46487 5.70537202,2.49217 5.70537202,1.32159 z M -42.11913,132.18734 c 0.53358,-0.26866 0.97014,-0.65251 0.97014,-0.853 0,-0.2005 -0.14035,-0.2778 -0.31189,-0.17178 -0.17154,0.10602 -2.64982,0.21113 -5.50727,0.23359 -4.48766,0.0353 -5.27414,-0.0418 -5.77353,-0.56577 -0.54471,-0.57152 -0.43854,-0.59623 1.83565,-0.42718 2.72426,0.20252 2.68991,0.0385 -0.23683,-1.13044 -1.68579,-0.67333 -2.41691,-0.779 -4.05695,-0.58633 -2.38743,0.28046 -5.81545,1.47337 -6.54507,2.27761 -0.4795,0.52854 -0.34877,0.56661 1.56963,0.45704 1.15099,-0.0657 4.11682,0.21053 6.59073,0.61391 6.79753,1.10838 9.4954,1.14423 11.46539,0.15235 z m 3.21303,-2.21071 c -0.30491,-0.33781 -0.89217,0.6517 -0.63436,1.06885 0.20467,0.33115 0.34178,0.27004 0.52471,-0.23385 0.1362,-0.37517 0.18554,-0.75093 0.10965,-0.835 z m 28.160037,0.14033 c -0.06179,-0.57519 -0.538042,-1.4968 -1.058333,-2.04803 -0.831797,-0.88126 -1.142125,-0.98391 -2.570928,-0.85041 -1.687213,0.15764 -4.195886,1.68963 -4.195886,2.56232 0,0.98357 1.182313,0.89606 2.280983,-0.16882 0.773836,-0.75002 1.450333,-1.07002 2.262103,-1.07002 1.025522,0 1.222223,0.16321 1.718095,1.42557 0.67837,1.72696 1.744384,1.82878 1.563966,0.14939 z m -30.105757,-0.12202 c 0.59077,-0.37443 -0.55203,-1.20117 -3.82495,-2.7671 -3.25504,-1.55738 -5.84744,-2.33177 -7.02053,-2.09716 -1.14415,0.22883 -1.48322,0.0379 -1.2077,-0.68012 0.45178,-1.17731 3.70056,-0.48002 8.28405,1.77801 1.39516,0.68731 2.59746,1.18885 2.67178,1.11453 0.0743,-0.0743 -0.62804,-0.86971 -1.56082,-1.76753 -4.68416,-4.50863 -12.98077,-6.00487 -18.26783,-3.29449 l -1.41979,0.72785 1.05834,0.33044 c 1.58233,0.49405 6.77798,2.69393 9.08306,3.84583 4.80877,2.40306 10.70446,3.76039 12.20439,2.80974 z m 14.16672,-1.13502 c 0,-1.02099 -1.91445,-2.71746 -3.37604,-2.99166 -2.03595,-0.38194 -5.09063,1.42022 -5.09063,3.00332 0,0.76181 1.69224,0.34444 2.76669,-0.68236 0.60909,-0.58209 1.40498,-1.05834 1.76864,-1.05834 0.84489,0 2.52023,1.30683 2.52023,1.96589 0,0.27696 0.3175,0.50356 0.70555,0.50356 0.48144,0 0.70556,-0.23519 0.70556,-0.74041 z m 7.52185,-3.62031 c 0.63205,-0.26409 1.4207,-0.75168 1.752555,-1.08353 1.648256,-1.64826 -0.202415,-5.13908 -2.724495,-5.13908 -1.54444,0 -3.39966,0.7303 -4.40233,1.73296 -0.98442,0.98443 -0.99328,3.15001 -0.0172,4.19774 0.85575,0.91853 3.54344,1.06406 5.39144,0.29191 z m -4.68192,-1.086 c -0.23181,-0.27931 -0.37031,-0.954 -0.30779,-1.49931 0.0889,-0.7752 0.46026,-1.16364 1.7025,-1.78078 1.33567,-0.66354 1.79379,-0.7327 2.87532,-0.43408 0.70758,0.19538 1.38528,0.61262 1.506,0.92721 0.73262,1.90919 -4.43513,4.40265 -5.77603,2.78696 z m 16.4393585,-0.26224 c 0.524333,-0.25556 1.022368,-0.67628 1.106745,-0.93494 0.117835,-0.36122 -0.09704,-0.34077 -0.926571,0.0882 -1.276124,0.65992 -3.6196405,0.73498 -4.2194655,0.13515 -0.516879,-0.51688 -0.548978,-1.85772 -0.06607,-2.76004 0.282476,-0.52781 0.211726,-0.74544 -0.337965,-1.03963 -0.786081,-0.4207 -1.172295,0.0571 -1.578804,1.9531 -0.272426,1.27065 0.735739,2.82516 2.00751,3.09542 1.12873,0.23986 2.9090195,0.002 4.0146215,-0.53725 z M -29.62514,121.9436 c 0.76294,-0.49871 1.33323,-1.476 1.03521,-1.77402 -0.20732,-0.20732 -3.35527,2.11383 -3.37308,2.48716 -0.0172,0.35982 1.32078,-0.0483 2.33787,-0.71314 z"
       style="fill:#000000;stroke-width:0.35277778" />
  </g>
</svg>
